<svg aria-hidden="true" style="position: absolute; width: 0; height: 0; overflow: hidden;" version="1.1" xmlns="http://www.w3.org/2000/svg" xmlns:xlink="http://www.w3.org/1999/xlink">
<defs>
<symbol id="icon-rock" viewBox="0 0 24 28">
<path d="M12 6c-1.109 0-2 0.891-2 2v2h-0.5v-1.453c0-0.984-0.75-1.797-1.75-1.797-0.969 0-1.75 0.781-1.75 1.75v6.703l-0.5-0.469v-2.688c0-0.984-0.75-1.797-1.75-1.797-0.969 0-1.75 0.781-1.75 1.75v3.5c0 0.484 0.203 0.938 0.547 1.281l4.844 4.625c0.453 0.453 0.609 0.969 0.609 1.594 0 0.547 0.453 1 1 1h10c0.547 0 1-0.453 1-1v-0.391c0-0.406 0.047-0.812 0.156-1.203l1.687-6.813c0.109-0.391 0.156-0.797 0.156-1.203v-3.844c0-0.984-0.75-1.797-1.75-1.797-0.969 0-1.75 0.781-1.75 1.75v0.5h-0.5v-1.953c0-0.828-0.562-1.594-1.391-1.766-0.109-0.016-0.234-0.031-0.359-0.031-0.969 0-1.75 0.781-1.75 1.75v2h-0.5v-1.906c0-1.047-0.75-1.969-1.797-2.078-0.078-0.016-0.141-0.016-0.203-0.016zM12 4c0.844 0 1.656 0.266 2.328 0.781 0.578-0.344 1.25-0.531 1.922-0.531 1.234 0 2.375 0.594 3.078 1.609 0.297-0.078 0.609-0.109 0.922-0.109 2.094 0 3.75 1.719 3.75 3.797v3.844c0 0.562-0.078 1.141-0.203 1.687l-1.703 6.813c-0.094 0.375-0.094 0.734-0.094 1.109 0 1.656-1.344 3-3 3h-10c-1.781 0-3-1.422-3-3.141l-4.813-4.625c-0.734-0.703-1.188-1.703-1.188-2.734v-3.5c0-2.063 1.687-3.75 3.75-3.75 0.094 0 0.172 0 0.25 0.016 0.125-1.984 1.781-3.516 3.75-3.516 0.531 0 1.047 0.109 1.531 0.328 0.734-0.703 1.703-1.078 2.719-1.078z"></path>
</symbol>
<symbol id="icon-paper" viewBox="0 0 26 28">
<path d="M13.75 2c-0.969 0-1.75 0.781-1.75 1.75v10.25h-0.5v-8.25c0-0.969-0.781-1.75-1.75-1.75s-1.75 0.781-1.75 1.75v12.25l-2.406-3.203c-0.375-0.5-0.969-0.797-1.594-0.797-1.109 0-2 0.906-2 2 0 0.438 0.141 0.859 0.406 1.203l6 8c0.375 0.5 0.969 0.797 1.594 0.797h10.75c0.719 0 1.344-0.516 1.484-1.219l1.188-6.328c0.047-0.297 0.078-0.609 0.078-0.922v-7.781c0-0.969-0.781-1.75-1.75-1.75s-1.75 0.781-1.75 1.75v4.25h-0.5v-8.25c0-0.969-0.781-1.75-1.75-1.75s-1.75 0.781-1.75 1.75v8.25h-0.5v-10.25c0-0.969-0.781-1.75-1.75-1.75zM13.75 0c1.406 0 2.703 0.797 3.344 2.063 0.219-0.047 0.438-0.063 0.656-0.063 2.063 0 3.75 1.687 3.75 3.75v0.266c2.172-0.125 4 1.547 4 3.734v7.781c0 0.438-0.047 0.875-0.125 1.297l-1.188 6.312c-0.297 1.656-1.75 2.859-3.437 2.859h-10.75c-1.25 0-2.453-0.609-3.203-1.594l-6-8c-0.516-0.688-0.797-1.547-0.797-2.406 0-2.203 1.781-4 4-4 0.656 0 1.453 0.156 2 0.531v-6.781c0-2.063 1.687-3.75 3.75-3.75 0.219 0 0.438 0.016 0.656 0.063 0.641-1.266 1.937-2.063 3.344-2.063z"></path>
</symbol>
<symbol id="icon-scissor" viewBox="0 0 28 28">
<path d="M16.766 26h-2.766c-1.625 0-2.859-0.703-3.531-2.203-0.234-0.5-0.359-1.047-0.359-1.594v-0.078c-1.281-0.625-2.109-1.937-2.109-3.375 0-0.172 0-0.594 0.078-0.75h-4.078c-2.203 0-4-1.797-4-4s1.797-4 4-4h1.766l-0.688-0.266c-1.547-0.578-2.578-2.078-2.578-3.734 0-2.203 1.797-4 4-4 0.484 0 0.969 0.094 1.422 0.266l9.812 3.734h6.266c2.203 0 4 1.797 4 4v10.437c0 1.844-1.25 3.437-3.031 3.875l-5.297 1.328c-0.938 0.234-1.922 0.359-2.906 0.359zM16 14.891l-2.422 1.109-2.547 1.156c-0.625 0.281-1.031 0.906-1.031 1.594 0 0.969 0.781 1.75 1.75 1.75 0.25 0 0.5-0.047 0.719-0.156l5.281-2.406c-1.016-0.219-1.75-1.141-1.75-2.188v-0.859zM21 19.75c0-0.969-0.781-1.75-1.75-1.75-0.25 0-0.5 0.047-0.719 0.156l-4.531 2.063c-0.938 0.422-1.891 0.797-1.891 1.984 0 1.031 0.719 1.781 1.766 1.781 0.187 0 0.438-0.063 0.594-0.141l5.5-2.5c0.625-0.281 1.031-0.906 1.031-1.594zM17.375 8l-10.156-3.875c-0.234-0.078-0.469-0.125-0.719-0.125-1.094 0-2 0.891-2 2 0 0.828 0.516 1.578 1.281 1.875l8.219 3.125v1h-10c-1.109 0-2 0.891-2 2s0.891 2 2 2h8.359l3.641-1.656v-3.094c0-0.625 0.266-1.234 0.719-1.656l1.734-1.594h-1.078zM16.766 24c0.812 0 1.641-0.094 2.422-0.297l5.297-1.328c0.891-0.219 1.516-1.016 1.516-1.937v-10.437c0-1.109-0.891-2-2-2h-4.813l-2.125 1.969c-0.359 0.328-0.562 0.797-0.562 1.281v4.625c0 0.969 0.797 1.687 1.75 1.687 0.969 0 1.75-0.859 1.75-1.813v-3.25h0.5v3.25c0 0.703-0.344 1.359-0.891 1.781 1.094 0.172 1.891 1.125 1.891 2.219 0 0.875-0.516 1.687-1.313 2.047l-4.844 2.203h1.422z"></path>
</symbol>
<symbol id="icon-game-dev" viewBox="0 0 24 24">
<path d="M21.984 17.016v-7.031h-3.984v7.031h3.984zM23.016 8.016q0.422 0 0.703 0.281t0.281 0.703v9.984q0 0.422-0.281 0.727t-0.703 0.305h-6q-0.422 0-0.727-0.305t-0.305-0.727v-9.984q0-0.422 0.305-0.703t0.727-0.281h6zM3.984 6v11.016h10.031v3h-14.016v-3h2.016v-11.016q0-0.797 0.586-1.406t1.383-0.609h18v2.016h-18z"></path>
</symbol>
<symbol id="icon-puzzle" viewBox="0 0 35 32">
<path d="M20.042 3.907c0-1.945-1.559-3.907-5.042-3.907-3.067 0-5.129 1.57-5.129 3.907 0 1.364 0.552 1.986 0.917 2.398 0.193 0.217 0.271 0.315 0.271 0.413 0 0.162 0 0.26-0.558 0.282h-6.098c-2.345 0-4.403 1.869-4.403 4v3.732c0.038 0.944 0.571 1.531 1.392 1.531 0.467 0 0.813-0.267 1.149-0.526 0.45-0.345 0.959-0.737 1.959-0.737 1.696 0 3.5 1.402 3.5 4 0 2.629-1.828 4.462-3.469 4.462-0.99 0-1.508-0.429-1.966-0.807-0.343-0.284-0.697-0.578-1.174-0.578-0.82 0-1.354 0.587-1.392 1.551v4.102c0.001 2.235 2.1 4.27 4.404 4.27h6.129c0.928-0.038 1.527-0.585 1.527-1.396 0-0.487-0.277-0.8-0.522-1.076-0.328-0.369-0.666-0.75-0.666-1.734 0-1.766 1.604-2.907 4.085-2.907s4.086 1.141 4.086 2.907c0 0.984-0.339 1.365-0.666 1.734-0.245 0.276-0.523 0.589-0.523 1.076 0 0.822 0.585 1.356 1.548 1.395l3.941 0.001c2.152 0 3.656-1.677 3.656-4.078v-4.65c0.026-0.122 0.334-0.588 0.804-0.588 0.096 0 0.193 0.079 0.409 0.271 0.41 0.367 1.031 0.922 2.393 0.922 2.184-0.001 4.396-1.675 4.396-4.877 0-3.454-2.009-5-4-5-1.344 0-2.12 0.614-2.634 1.020-0.228 0.18-0.442 0.35-0.564 0.35-0.471 0-0.779-0.468-0.802-0.571-0.001-0.008-0.001-0.016-0.002-0.024v-3.583c0-2.429-1.538-4.192-3.656-4.192h-3.921c-0.013-0.001-0.026-0.002-0.040-0.003-0.528-0.020-0.528-0.117-0.528-0.279 0-0.098 0.078-0.195 0.271-0.413 0.365-0.411 0.918-1.034 0.918-2.398zM18.376 5.642c-0.245 0.276-0.523 0.59-0.523 1.077 0 0.55 0.251 1.212 1.471 1.277 0.023 0.003 0.046 0.004 0.070 0.004h3.948c1.744 0 2.658 1.606 2.658 3.192v3.633c0 0.036-0.007 0.071 0 0.105 0.092 0.611 0.842 1.439 1.802 1.439 0.47 0 0.816-0.274 1.185-0.565 0.476-0.377 1.017-0.804 2.013-0.804 1.822 0 3 1.57 3 4 0 2.664-1.761 3.876-3.396 3.876-0.979 0-1.359-0.339-1.727-0.667-0.276-0.246-0.589-0.525-1.075-0.525-0.96 0-1.711 0.829-1.802 1.44-0.007 0.034 0 0.069 0 0.105v4.694c0 1.531-0.823 3.077-2.658 3.077h-3.921c-0.568-0.023-0.568-0.285-0.568-0.396 0-0.097 0.078-0.195 0.271-0.413 0.365-0.412 0.918-1.034 0.918-2.398 0-1.945-1.572-3.907-5.086-3.907-3.041 0-5.085 1.57-5.085 3.907 0 1.364 0.552 1.986 0.918 2.398 0.192 0.217 0.271 0.315 0.271 0.413 0 0.112 0 0.374-0.548 0.396h-6.109c-1.717 0-3.403-1.62-3.403-3.27v-4.082c0.022-0.571 0.281-0.571 0.392-0.571 0.116 0 0.32 0.169 0.537 0.348 0.498 0.413 1.253 1.037 2.603 1.037 2.157 0 4.468-2.195 4.468-5.462 0-3.248-2.318-5-4.5-5-1.34 0-2.079 0.568-2.568 0.945-0.222 0.171-0.414 0.318-0.54 0.318-0.11 0-0.369 0-0.392-0.551v-3.712c0-1.768 1.794-3 3.403-3h6.115c0.016 0 0.031-0.001 0.047-0.002v0c1.235-0.046 1.494-0.722 1.494-1.28 0-0.487-0.277-0.8-0.522-1.076-0.328-0.369-0.666-0.75-0.666-1.735 0-1.739 1.659-2.907 4.129-2.907 2.455 0 4.042 1.141 4.042 2.907 0 0.984-0.339 1.366-0.666 1.735z"></path>
</symbol>
<symbol id="icon-moon" viewBox="0 0 32 32">
<path d="M10.895 7.574c0 7.55 5.179 13.67 11.567 13.67 1.588 0 3.101-0.38 4.479-1.063-1.695 4.46-5.996 7.636-11.051 7.636-6.533 0-11.83-5.297-11.83-11.83 0-4.82 2.888-8.959 7.023-10.803-0.116 0.778-0.188 1.573-0.188 2.39z"></path>
</symbol>
<symbol id="icon-sun" viewBox="0 0 32 32">
<path d="M8.031 16.5c0 4.143 3.358 7.5 7.5 7.5s7.5-3.357 7.5-7.5-3.357-7.5-7.5-7.5c-4.142 0-7.5 3.357-7.5 7.5zM15.531 3.75l-2.109 4.219h4.219l-2.11-4.219zM24.543 7.457l-4.475 1.491 2.982 2.983 1.493-4.474zM10.994 8.948l-4.474-1.491 1.491 4.475 2.983-2.984zM6.969 14.359l-4.219 2.11 4.219 2.109v-4.219zM24.031 18.641l4.219-2.109-4.219-2.109v4.218zM15.531 29.25l2.109-4.219h-4.219l2.11 4.219zM20.068 24.052l4.475 1.491-1.492-4.475-2.983 2.984zM6.52 25.543l4.475-1.491-2.983-2.983-1.492 4.474z"></path>
</symbol>
<symbol id="icon-arrow-left" viewBox="0 0 16 32">
<path stroke-linejoin="miter" stroke-linecap="butt" stroke-miterlimit="4" stroke-width="0.3137" d="M16 0.314l-15.686 15.686 15.686 15.686"></path>
</symbol>
<symbol id="icon-minus" viewBox="0 0 64 32">
<path d="M11.52 6.016h50.304v11.904h-50.304v-11.904z"></path>
</symbol>
<symbol id="icon-divide" viewBox="0 0 15 32">
<path d="M11.471 2.206h1.92l-9.748 27.825h-1.92l9.748-27.825z"></path>
</symbol>
<symbol id="icon-arrow-down" viewBox="0 0 50 32">
<path stroke-linejoin="round" stroke-linecap="round" stroke-miterlimit="4" stroke-width="3.4286" d="M45.714 4.571l-20.571 22.857-20.571-22.857"></path>
</symbol>
<symbol id="icon-multiply" viewBox="0 0 32 32">
<path d="M18.432 14.515l9.523 5.376-1.766 3.226-9.6-5.606v10.906h-3.533l0.077-10.906-9.6 5.606-1.843-3.226 9.6-5.376-9.6-5.376 1.843-3.302 9.6 5.683-0.077-10.906h3.533v10.906l9.6-5.683 1.766 3.302-9.523 5.376z"></path>
</symbol>
<symbol id="icon-plus" viewBox="0 0 37 32">
<path d="M32.32 16.853h-11.904v11.648h-4.032v-11.648h-11.904v-3.776h11.904v-11.712h4.032v11.712h11.904v3.776z"></path>
</symbol>
<symbol id="icon-equal" viewBox="0 0 56 32">
<path d="M6.72 0.48h41.76v5.664h-41.76v-5.664zM6.72 22.656h41.76v5.664h-41.76v-5.664z"></path>
</symbol>
<symbol id="icon-search" viewBox="0 0 32 32">
<path stroke-linejoin="miter" stroke-linecap="butt" stroke-miterlimit="4" stroke-width="4" d="M24.087 13.043c0 6.099-4.944 11.043-11.043 11.043s-11.043-4.944-11.043-11.043c0-6.099 4.944-11.043 11.043-11.043s11.043 4.944 11.043 11.043z"></path>
<path d="M28.586 31.414c0.781 0.781 2.047 0.781 2.828 0s0.781-2.047 0-2.828l-2.828 2.828zM22.936 20.108l-1.414-1.414-2.829 2.828 1.414 1.414 2.828-2.828zM31.414 28.586l-8.478-8.478-2.828 2.828 8.478 8.478 2.828-2.828z"></path>
</symbol>
<symbol id="icon-logo" viewBox="0 0 75 32">
<path stroke-linejoin="round" stroke-linecap="round" stroke-miterlimit="4" stroke-width="0.9143" d="M8.734 9.943l-7.94 8 7.94 8"></path>
<path stroke-linejoin="round" stroke-linecap="round" stroke-miterlimit="4" stroke-width="0.9143" d="M24.614 9.943l7.94 8-7.94 8"></path>
<path d="M19.48 4.034l-6.818 25.637c-0.093 0.348-0.448 0.555-0.794 0.462s-0.551-0.451-0.458-0.8l6.818-25.637c0.093-0.348 0.448-0.555 0.794-0.462s0.551 0.451 0.458 0.8z"></path>
<path d="M18.228 3.696c0.093-0.348 0.448-0.555 0.794-0.462s0.551 0.451 0.458 0.8l-0.83 3.123-1.252-0.338 0.83-3.123z"></path>
<path stroke-linejoin="miter" stroke-linecap="round" stroke-miterlimit="4" stroke-width="0.6857" d="M20.401 5.618l2.504 0.676"></path>
<path stroke-linejoin="miter" stroke-linecap="round" stroke-miterlimit="4" stroke-width="0.6857" d="M14.141 3.928l2.504 0.676"></path>
<path stroke-linejoin="miter" stroke-linecap="round" stroke-miterlimit="4" stroke-width="0.6857" d="M15.598 0.969l1.3 2.247"></path>
<path stroke-linejoin="miter" stroke-linecap="round" stroke-miterlimit="4" stroke-width="0.6857" d="M13.963 7.117l2.241-1.291"></path>
<path stroke-linejoin="miter" stroke-linecap="round" stroke-miterlimit="4" stroke-width="0.6857" d="M20.068 6.869l1.3 2.247"></path>
<path stroke-linejoin="miter" stroke-linecap="round" stroke-miterlimit="4" stroke-width="0.6857" d="M20.762 4.26l2.241-1.291"></path>
<path d="M43.682 12.058c-0.661 0-1.258-0.147-1.791-0.442-0.527-0.294-0.943-0.701-1.248-1.219-0.299-0.525-0.448-1.11-0.448-1.757s0.149-1.229 0.448-1.747c0.305-0.525 0.724-0.934 1.258-1.229s1.131-0.442 1.791-0.442c0.495 0 0.953 0.083 1.372 0.25s0.775 0.41 1.067 0.73l-0.448 0.451c-0.521-0.531-1.178-0.797-1.972-0.797-0.527 0-1.007 0.122-1.439 0.365s-0.772 0.576-1.019 0.998c-0.241 0.422-0.362 0.896-0.362 1.421s0.121 0.998 0.362 1.421c0.248 0.422 0.588 0.755 1.019 0.998s0.911 0.365 1.439 0.365c0.8 0 1.458-0.269 1.972-0.806l0.448 0.451c-0.293 0.32-0.651 0.566-1.077 0.739-0.419 0.166-0.877 0.25-1.372 0.25zM49.316 12.048c-0.483 0-0.917-0.109-1.305-0.326-0.388-0.224-0.692-0.531-0.915-0.922s-0.333-0.832-0.333-1.325 0.111-0.934 0.333-1.325c0.223-0.39 0.527-0.694 0.915-0.912s0.822-0.326 1.305-0.326c0.483 0 0.918 0.109 1.306 0.326s0.689 0.522 0.905 0.912c0.222 0.39 0.333 0.832 0.333 1.325s-0.111 0.934-0.333 1.325c-0.216 0.39-0.518 0.698-0.905 0.922-0.388 0.218-0.823 0.326-1.306 0.326zM49.316 11.443c0.356 0 0.673-0.080 0.953-0.24 0.286-0.166 0.508-0.4 0.667-0.701s0.238-0.643 0.238-1.027-0.080-0.726-0.238-1.027c-0.159-0.301-0.381-0.531-0.667-0.691-0.28-0.166-0.597-0.25-0.953-0.25s-0.676 0.083-0.962 0.25c-0.279 0.16-0.502 0.39-0.667 0.691-0.159 0.301-0.238 0.643-0.238 1.027s0.080 0.726 0.238 1.027c0.166 0.301 0.388 0.534 0.667 0.701 0.286 0.16 0.607 0.24 0.962 0.24zM57.814 4.877v7.123h-0.648v-0.998c-0.203 0.339-0.473 0.598-0.81 0.778-0.331 0.179-0.705 0.269-1.125 0.269-0.47 0-0.896-0.109-1.277-0.326s-0.679-0.522-0.896-0.912c-0.216-0.39-0.324-0.835-0.324-1.334s0.108-0.944 0.324-1.334c0.216-0.39 0.515-0.691 0.896-0.902 0.381-0.218 0.807-0.326 1.277-0.326 0.407 0 0.772 0.086 1.096 0.259 0.331 0.166 0.6 0.413 0.81 0.739v-3.034h0.677zM55.289 11.443c0.35 0 0.664-0.080 0.944-0.24 0.286-0.166 0.508-0.4 0.667-0.701 0.165-0.301 0.248-0.643 0.248-1.027s-0.083-0.726-0.248-1.027c-0.159-0.301-0.381-0.531-0.667-0.691-0.28-0.166-0.594-0.25-0.944-0.25-0.356 0-0.676 0.083-0.962 0.25-0.279 0.16-0.502 0.39-0.667 0.691-0.159 0.301-0.238 0.643-0.238 1.027s0.080 0.726 0.238 1.027c0.166 0.301 0.388 0.534 0.667 0.701 0.286 0.16 0.607 0.24 0.962 0.24zM59.698 6.95h0.676v5.050h-0.676v-5.050zM60.041 5.846c-0.14 0-0.257-0.048-0.352-0.144s-0.143-0.211-0.143-0.346c0-0.128 0.048-0.24 0.143-0.336s0.213-0.144 0.352-0.144 0.257 0.048 0.352 0.144c0.096 0.090 0.143 0.198 0.143 0.326 0 0.141-0.048 0.259-0.143 0.355s-0.213 0.144-0.352 0.144zM64.811 6.912c0.629 0 1.127 0.186 1.496 0.557 0.375 0.365 0.562 0.899 0.562 1.603v2.928h-0.677v-2.861c0-0.525-0.13-0.925-0.391-1.2s-0.632-0.413-1.115-0.413c-0.54 0-0.969 0.163-1.286 0.49-0.311 0.32-0.467 0.765-0.467 1.334v2.65h-0.677v-5.050h0.648v0.931c0.184-0.307 0.438-0.544 0.763-0.71 0.33-0.173 0.711-0.259 1.143-0.259zM73.364 6.95v4.435c0 0.858-0.21 1.491-0.629 1.901-0.413 0.416-1.039 0.624-1.877 0.624-0.464 0-0.905-0.070-1.324-0.211-0.413-0.134-0.749-0.323-1.010-0.566l0.343-0.518c0.241 0.218 0.534 0.387 0.877 0.509 0.349 0.122 0.715 0.182 1.096 0.182 0.635 0 1.102-0.15 1.4-0.451 0.299-0.294 0.448-0.755 0.448-1.382v-0.643c-0.209 0.32-0.486 0.563-0.829 0.73-0.337 0.166-0.711 0.25-1.125 0.25-0.47 0-0.899-0.102-1.286-0.307-0.381-0.211-0.683-0.502-0.905-0.874-0.216-0.378-0.324-0.803-0.324-1.277s0.108-0.896 0.324-1.267c0.222-0.371 0.524-0.659 0.905-0.864s0.81-0.307 1.286-0.307c0.426 0 0.81 0.086 1.153 0.259s0.619 0.422 0.829 0.749v-0.97h0.648zM70.8 11.203c0.362 0 0.689-0.077 0.981-0.23 0.292-0.16 0.517-0.381 0.677-0.662 0.165-0.282 0.248-0.602 0.248-0.96s-0.083-0.675-0.248-0.95c-0.159-0.282-0.384-0.499-0.677-0.653-0.286-0.16-0.613-0.24-0.981-0.24-0.362 0-0.689 0.077-0.981 0.23-0.286 0.154-0.512 0.371-0.677 0.653-0.159 0.282-0.238 0.602-0.238 0.96s0.079 0.678 0.238 0.96c0.165 0.282 0.39 0.502 0.677 0.662 0.292 0.154 0.619 0.23 0.981 0.23z"></path>
<path d="M61.897 18.762c-0.133 0.197-0.282 0.433-0.447 0.708s-0.34 0.583-0.526 0.923c-0.158 0.284-0.315 0.588-0.47 0.909-0.152 0.319-0.298 0.636-0.437 0.952-0.14 0.312-0.268 0.614-0.386 0.905-0.118 0.288-0.22 0.542-0.307 0.764-0.087 0.219-0.155 0.395-0.204 0.53-0.050 0.131-0.075 0.198-0.075 0.202-0.031 0.078-0.087 0.117-0.168 0.117-0.040 0-0.076-0.012-0.107-0.037-0.031-0.028-0.051-0.063-0.060-0.103 0-0.003-0.016-0.069-0.047-0.197-0.028-0.131-0.067-0.305-0.116-0.52-0.050-0.219-0.107-0.469-0.172-0.75-0.062-0.284-0.128-0.58-0.2-0.886-0.069-0.309-0.138-0.622-0.209-0.938s-0.138-0.616-0.2-0.9c-0.208 0.591-0.417 1.114-0.628 1.57-0.208 0.453-0.422 0.848-0.642 1.186-0.22 0.334-0.448 0.616-0.684 0.844-0.233 0.228-0.478 0.412-0.735 0.553-0.254 0.138-0.523 0.236-0.805 0.295-0.279 0.059-0.575 0.089-0.888 0.089-0.161 0-0.334-0.019-0.517-0.056-0.183-0.034-0.364-0.089-0.544-0.164s-0.352-0.169-0.517-0.281c-0.164-0.113-0.31-0.245-0.437-0.398-0.127-0.156-0.228-0.331-0.303-0.525-0.074-0.197-0.112-0.416-0.112-0.656 0-0.253 0.053-0.484 0.158-0.694 0.106-0.212 0.248-0.394 0.428-0.544 0.18-0.153 0.387-0.272 0.623-0.356 0.239-0.084 0.49-0.127 0.754-0.127 0.192 0 0.364 0.017 0.516 0.052 0.155 0.031 0.292 0.072 0.41 0.122s0.218 0.105 0.302 0.164c0.084 0.059 0.154 0.114 0.209 0.164s0.096 0.094 0.121 0.131c0.025 0.034 0.039 0.052 0.042 0.052 0.018 0.034 0.028 0.067 0.028 0.098 0 0.044-0.017 0.084-0.051 0.122-0.031 0.037-0.073 0.056-0.126 0.056-0.062 0-0.112-0.027-0.149-0.080-0.003-0.003-0.028-0.031-0.075-0.084-0.046-0.056-0.123-0.117-0.228-0.183s-0.242-0.125-0.41-0.178c-0.164-0.053-0.366-0.080-0.605-0.080-0.217 0-0.423 0.034-0.618 0.103-0.192 0.066-0.362 0.159-0.507 0.281-0.143 0.122-0.258 0.267-0.345 0.436-0.084 0.166-0.125 0.348-0.125 0.548 0 0.197 0.032 0.377 0.097 0.539s0.152 0.308 0.261 0.436c0.109 0.128 0.234 0.239 0.377 0.333s0.291 0.172 0.447 0.234c0.155 0.059 0.31 0.105 0.465 0.136 0.158 0.028 0.307 0.042 0.447 0.042 0.236 0 0.465-0.017 0.688-0.052 0.227-0.038 0.448-0.106 0.666-0.206 0.22-0.1 0.436-0.238 0.646-0.412s0.42-0.403 0.628-0.684c0.208-0.281 0.412-0.62 0.614-1.017 0.205-0.397 0.41-0.866 0.614-1.406 0.062-0.162 0.123-0.337 0.181-0.525s0.119-0.377 0.181-0.567c-0.053-0.275-0.092-0.509-0.117-0.703-0.022-0.194-0.032-0.355-0.032-0.483 0-0.137 0.011-0.247 0.032-0.328s0.050-0.142 0.084-0.183c0.034-0.044 0.071-0.070 0.112-0.080 0.040-0.013 0.079-0.019 0.116-0.019 0.031 0 0.065 0.006 0.102 0.019 0.040 0.012 0.076 0.041 0.107 0.084 0.034 0.041 0.062 0.102 0.084 0.183s0.032 0.191 0.032 0.328c0 0.15-0.014 0.323-0.042 0.52s-0.070 0.414-0.126 0.652c0.040 0.191 0.087 0.403 0.139 0.637s0.107 0.478 0.163 0.731c0.056 0.25 0.113 0.506 0.172 0.769s0.116 0.519 0.172 0.769c0.056 0.25 0.108 0.489 0.158 0.717 0.053 0.228 0.101 0.434 0.144 0.619 0.084-0.213 0.186-0.469 0.307-0.769 0.121-0.303 0.256-0.623 0.405-0.961 0.149-0.341 0.305-0.686 0.47-1.036 0.167-0.353 0.338-0.686 0.512-0.998 0.245-0.444 0.47-0.823 0.675-1.139 0.205-0.319 0.382-0.581 0.53-0.788s0.265-0.358 0.349-0.455c0.087-0.1 0.133-0.155 0.14-0.164 0.034-0.034 0.076-0.052 0.126-0.052 0.053 0 0.095 0.019 0.125 0.056 0.034 0.034 0.051 0.075 0.051 0.122 0 0.022-0.005 0.044-0.014 0.066 0 0.003-0.019 0.050-0.056 0.141-0.034 0.087-0.079 0.209-0.135 0.366-0.053 0.153-0.112 0.334-0.177 0.544-0.065 0.206-0.129 0.43-0.191 0.67-0.062 0.237-0.118 0.488-0.168 0.75-0.047 0.259-0.080 0.519-0.102 0.778-0.009 0.119-0.017 0.244-0.023 0.375-0.006 0.128-0.009 0.258-0.009 0.389 0 0.206 0.009 0.414 0.028 0.623s0.050 0.411 0.093 0.605c0.043 0.194 0.102 0.377 0.176 0.548 0.075 0.169 0.166 0.317 0.275 0.445s0.237 0.231 0.386 0.309c0.152 0.078 0.327 0.12 0.526 0.127 0.049 0.003 0.088 0.025 0.116 0.066 0.031 0.038 0.047 0.078 0.047 0.122s-0.017 0.083-0.051 0.117c-0.034 0.034-0.075 0.052-0.121 0.052-0.050 0-0.099-0.005-0.149-0.014-0.223-0.031-0.42-0.095-0.591-0.192-0.17-0.1-0.318-0.222-0.442-0.366-0.124-0.147-0.228-0.312-0.312-0.497-0.080-0.187-0.146-0.387-0.195-0.6s-0.086-0.433-0.107-0.661c-0.019-0.231-0.028-0.464-0.028-0.698 0-0.278 0.014-0.556 0.042-0.834s0.065-0.548 0.112-0.811c0.046-0.266 0.101-0.522 0.163-0.769s0.126-0.477 0.191-0.689zM67.252 23.492c-0.013 0.025-0.039 0.078-0.079 0.159-0.037 0.078-0.087 0.169-0.149 0.272-0.059 0.103-0.129 0.211-0.209 0.323s-0.171 0.216-0.27 0.309-0.206 0.172-0.321 0.234c-0.115 0.059-0.235 0.089-0.362 0.089-0.18 0-0.332-0.058-0.456-0.173-0.121-0.116-0.209-0.261-0.265-0.436-0.105 0.178-0.231 0.32-0.377 0.427-0.146 0.103-0.292 0.155-0.438 0.155-0.115 0-0.219-0.020-0.312-0.061-0.093-0.044-0.172-0.103-0.237-0.178-0.065-0.078-0.116-0.169-0.153-0.272-0.034-0.103-0.051-0.216-0.051-0.337 0-0.244 0.040-0.458 0.121-0.642 0.084-0.188 0.189-0.344 0.316-0.469s0.267-0.219 0.419-0.281c0.155-0.063 0.304-0.094 0.447-0.094 0.096 0 0.185 0.014 0.265 0.042 0.081 0.025 0.149 0.053 0.205 0.084 0.059 0.031 0.104 0.061 0.135 0.089 0.031 0.025 0.048 0.039 0.051 0.042 0.034 0.041 0.051 0.083 0.051 0.127 0 0.047-0.017 0.089-0.051 0.127-0.034 0.034-0.075 0.052-0.121 0.052-0.050 0-0.092-0.017-0.126-0.052-0.006-0.006-0.020-0.017-0.042-0.033-0.022-0.019-0.051-0.037-0.088-0.056s-0.082-0.034-0.135-0.047c-0.050-0.016-0.107-0.023-0.172-0.023-0.096 0-0.198 0.022-0.307 0.066s-0.208 0.112-0.298 0.206c-0.090 0.091-0.166 0.206-0.228 0.347-0.059 0.137-0.088 0.302-0.088 0.492 0 0.059 0.006 0.12 0.019 0.183 0.012 0.059 0.034 0.114 0.065 0.164s0.073 0.091 0.126 0.122c0.053 0.031 0.118 0.047 0.196 0.047 0.056 0 0.119-0.019 0.191-0.056 0.075-0.037 0.144-0.095 0.209-0.173 0.068-0.078 0.128-0.177 0.181-0.295 0.056-0.119 0.094-0.259 0.116-0.422 0.006-0.044 0.026-0.080 0.060-0.108 0.034-0.031 0.075-0.047 0.121-0.047 0.043 0 0.080 0.017 0.112 0.052 0.034 0.034 0.053 0.073 0.056 0.117 0.003 0.059 0.010 0.144 0.019 0.253 0.009 0.106 0.029 0.213 0.060 0.319 0.034 0.106 0.084 0.198 0.149 0.277s0.155 0.117 0.27 0.117c0.075 0 0.147-0.020 0.219-0.061 0.074-0.041 0.145-0.094 0.214-0.159 0.071-0.069 0.138-0.145 0.2-0.23 0.065-0.088 0.124-0.175 0.177-0.263s0.099-0.172 0.139-0.253c0.041-0.081 0.075-0.151 0.102-0.211 0.016-0.034 0.037-0.061 0.065-0.080 0.031-0.019 0.064-0.028 0.097-0.028 0.053 0 0.095 0.020 0.126 0.061 0.034 0.037 0.051 0.078 0.051 0.122 0 0.022-0.005 0.044-0.014 0.066zM68.614 25.259c0.583-0.766 0.988-1.401 1.215-1.908 0.015-0.034 0.036-0.059 0.060-0.075 0.028-0.019 0.059-0.028 0.093-0.028 0.053 0 0.096 0.019 0.13 0.056 0.034 0.034 0.051 0.075 0.051 0.122 0 0.022-0.005 0.044-0.014 0.066-0.137 0.313-0.331 0.661-0.582 1.045s-0.569 0.819-0.954 1.303c0 0.197 0.002 0.394 0.005 0.591s0.005 0.412 0.005 0.647c0 0.234-0.006 0.466-0.019 0.694-0.009 0.231-0.028 0.45-0.056 0.656-0.028 0.209-0.067 0.401-0.116 0.577-0.047 0.178-0.109 0.331-0.186 0.459-0.074 0.131-0.166 0.233-0.274 0.305-0.106 0.075-0.231 0.113-0.377 0.113-0.208 0-0.368-0.080-0.48-0.239s-0.167-0.386-0.167-0.68c0-0.156 0.014-0.327 0.042-0.511 0.031-0.181 0.074-0.369 0.13-0.563s0.123-0.391 0.2-0.591c0.081-0.197 0.169-0.389 0.265-0.577s0.2-0.367 0.312-0.539c0.115-0.172 0.236-0.328 0.363-0.469 0.003-0.219 0.005-0.436 0.005-0.652 0.003-0.216 0.008-0.414 0.014-0.595-0.093 0.119-0.205 0.212-0.335 0.281-0.127 0.069-0.254 0.103-0.381 0.103-0.109 0-0.208-0.020-0.298-0.061-0.087-0.044-0.161-0.103-0.223-0.178-0.062-0.078-0.11-0.169-0.144-0.272s-0.051-0.216-0.051-0.337c0-0.244 0.040-0.458 0.121-0.642 0.084-0.188 0.189-0.344 0.316-0.469s0.266-0.219 0.419-0.281c0.155-0.063 0.304-0.094 0.447-0.094 0.096 0 0.184 0.012 0.265 0.038s0.149 0.053 0.204 0.084c0.059 0.031 0.104 0.061 0.135 0.089s0.048 0.044 0.051 0.047c0.034 0.037 0.051 0.080 0.051 0.127s-0.017 0.089-0.051 0.127c-0.034 0.034-0.075 0.052-0.121 0.052-0.043 0-0.085-0.017-0.126-0.052-0.012-0.009-0.029-0.022-0.051-0.038-0.018-0.019-0.045-0.038-0.079-0.056-0.031-0.019-0.070-0.034-0.116-0.047-0.043-0.012-0.096-0.019-0.158-0.019-0.093 0-0.196 0.022-0.307 0.066-0.112 0.041-0.215 0.106-0.312 0.197s-0.176 0.208-0.242 0.352c-0.065 0.141-0.097 0.311-0.097 0.511 0 0.15 0.032 0.272 0.097 0.366 0.065 0.091 0.166 0.136 0.303 0.136 0.065 0 0.133-0.019 0.204-0.056 0.075-0.037 0.146-0.095 0.214-0.173s0.127-0.177 0.176-0.295c0.053-0.119 0.090-0.259 0.112-0.422 0.006-0.044 0.026-0.080 0.060-0.108 0.034-0.031 0.075-0.047 0.121-0.047 0.053 0 0.093 0.019 0.121 0.056 0.031 0.038 0.047 0.080 0.047 0.127 0 0.003-0.002 0.052-0.005 0.145-0.003 0.091-0.006 0.213-0.010 0.366s-0.008 0.331-0.014 0.534c-0.003 0.2-0.006 0.413-0.010 0.637zM68.261 26.286c-0.146 0.203-0.278 0.423-0.395 0.661-0.118 0.241-0.219 0.483-0.302 0.727s-0.149 0.48-0.196 0.708c-0.043 0.231-0.065 0.437-0.065 0.619 0 0.116 0.010 0.208 0.028 0.277 0.022 0.069 0.046 0.122 0.074 0.159 0.031 0.038 0.064 0.062 0.098 0.075 0.037 0.012 0.071 0.019 0.102 0.019 0.096 0 0.18-0.039 0.251-0.117s0.132-0.183 0.181-0.314c0.050-0.128 0.090-0.277 0.121-0.445s0.054-0.344 0.070-0.525c0.016-0.178 0.026-0.356 0.032-0.534s0.009-0.342 0.009-0.492c0-0.134 0-0.269 0-0.403s-0.003-0.272-0.009-0.412zM70.592 21.12c0 0.119-0.042 0.22-0.126 0.305-0.081 0.081-0.18 0.122-0.298 0.122s-0.219-0.041-0.302-0.122c-0.080-0.084-0.121-0.186-0.121-0.305 0-0.059 0.011-0.114 0.033-0.164 0.022-0.053 0.051-0.098 0.088-0.136 0.040-0.041 0.085-0.072 0.135-0.094 0.053-0.022 0.109-0.033 0.167-0.033s0.113 0.011 0.163 0.033c0.053 0.022 0.097 0.053 0.135 0.094 0.040 0.038 0.071 0.083 0.093 0.136 0.022 0.050 0.033 0.105 0.033 0.164zM69.838 23.867c0-0.45 0.028-0.898 0.084-1.345 0.006-0.044 0.025-0.081 0.056-0.112 0.034-0.034 0.078-0.052 0.13-0.052 0.047 0 0.085 0.019 0.117 0.056 0.031 0.034 0.046 0.075 0.046 0.122 0 0.019-0.005 0.075-0.014 0.169-0.006 0.094-0.016 0.206-0.028 0.337-0.010 0.128-0.019 0.266-0.028 0.413-0.006 0.144-0.010 0.277-0.010 0.398 0 0.166 0.016 0.3 0.047 0.403 0.034 0.1 0.076 0.178 0.126 0.234 0.053 0.056 0.107 0.094 0.163 0.112 0.059 0.019 0.115 0.028 0.167 0.028 0.087 0 0.177-0.031 0.27-0.094s0.187-0.15 0.283-0.262c0.1-0.113 0.199-0.247 0.298-0.403 0.099-0.159 0.197-0.336 0.293-0.53 0.016-0.031 0.037-0.055 0.065-0.070 0.028-0.019 0.059-0.028 0.093-0.028 0.049 0 0.090 0.019 0.121 0.056 0.034 0.038 0.051 0.078 0.051 0.122 0 0.031-0.006 0.058-0.018 0.080-0.037 0.072-0.084 0.159-0.14 0.262s-0.119 0.209-0.191 0.319-0.15 0.219-0.237 0.328c-0.084 0.106-0.174 0.203-0.27 0.291-0.096 0.084-0.197 0.153-0.303 0.206s-0.212 0.080-0.321 0.080c-0.139 0-0.262-0.030-0.368-0.089s-0.195-0.139-0.27-0.239c-0.071-0.1-0.126-0.217-0.163-0.352-0.034-0.137-0.051-0.284-0.051-0.441zM70.331 21.12c0-0.044-0.017-0.081-0.051-0.113-0.031-0.034-0.069-0.052-0.112-0.052s-0.080 0.017-0.112 0.052c-0.031 0.031-0.047 0.069-0.047 0.113s0.016 0.081 0.047 0.112c0.031 0.031 0.068 0.047 0.112 0.047s0.081-0.016 0.112-0.047c0.034-0.031 0.051-0.069 0.051-0.112zM74.876 23.502c-0.018 0.034-0.051 0.097-0.097 0.187-0.043 0.091-0.104 0.194-0.181 0.309-0.075 0.113-0.165 0.23-0.27 0.352s-0.227 0.234-0.363 0.337c-0.137 0.1-0.29 0.183-0.461 0.248-0.167 0.066-0.35 0.098-0.549 0.098-0.176 0-0.333-0.033-0.469-0.098-0.137-0.063-0.253-0.151-0.349-0.267-0.096-0.119-0.169-0.258-0.219-0.417s-0.075-0.336-0.075-0.53c0-0.187 0.026-0.362 0.079-0.525 0.053-0.166 0.124-0.309 0.214-0.431 0.093-0.122 0.2-0.217 0.321-0.286 0.121-0.072 0.25-0.108 0.386-0.108 0.102 0 0.195 0.019 0.279 0.056 0.084 0.034 0.154 0.081 0.209 0.141 0.059 0.059 0.104 0.125 0.135 0.197 0.034 0.072 0.051 0.144 0.051 0.216 0 0.069-0.010 0.133-0.028 0.192-0.016 0.059-0.037 0.112-0.065 0.159-0.025 0.044-0.054 0.080-0.088 0.108-0.034 0.025-0.068 0.038-0.102 0.038-0.053 0-0.096-0.017-0.13-0.052-0.031-0.034-0.047-0.077-0.047-0.127 0-0.025 0.005-0.047 0.014-0.066 0.012-0.019 0.025-0.038 0.037-0.056 0.016-0.022 0.028-0.047 0.037-0.075 0.012-0.031 0.018-0.070 0.018-0.117 0-0.066-0.031-0.125-0.093-0.178-0.059-0.053-0.135-0.080-0.228-0.080-0.087 0-0.171 0.027-0.251 0.080-0.077 0.053-0.145 0.125-0.204 0.216-0.059 0.087-0.107 0.192-0.144 0.314-0.034 0.119-0.051 0.245-0.051 0.38 0 0.128 0.016 0.25 0.047 0.366s0.078 0.219 0.139 0.309c0.062 0.088 0.14 0.158 0.233 0.211 0.096 0.053 0.209 0.080 0.34 0.080 0.167 0 0.323-0.030 0.465-0.089 0.143-0.062 0.273-0.141 0.391-0.234s0.222-0.195 0.312-0.305c0.090-0.113 0.166-0.217 0.228-0.314 0.065-0.1 0.115-0.186 0.149-0.258 0.037-0.075 0.059-0.122 0.065-0.141 0.013-0.031 0.033-0.055 0.061-0.070 0.031-0.019 0.064-0.028 0.097-0.028 0.053 0 0.095 0.019 0.126 0.056 0.034 0.038 0.051 0.080 0.051 0.127 0 0.019-0.006 0.044-0.019 0.075z"></path>
</symbol>
<symbol id="icon-sword" viewBox="0 0 32 32">
<path d="M30.828 1.172c-1.562-1.562-4.095-1.562-5.657 0l-5.379 5.379-3.793-3.793-4.243 4.243 3.326 3.326-14.754 14.754c-0.252 0.252-0.358 0.592-0.322 0.921h-0.008v5c0 0.552 0.448 1 1 1h5c0 0 0.083 0 0.125 0 0.288 0 0.576-0.11 0.795-0.329l14.754-14.754 3.326 3.326 4.243-4.243-3.793-3.793 5.379-5.379c1.562-1.562 1.562-4.095 0-5.657zM5.409 30h-3.409v-3.409l14.674-14.674 3.409 3.409-14.674 14.674z"></path>
</symbol>
<symbol id="icon-dice" viewBox="0 0 32 32">
<path d="M27 6h-16c-2.75 0-5 2.25-5 5v16c0 2.75 2.25 5 5 5h16c2.75 0 5-2.25 5-5v-16c0-2.75-2.25-5-5-5zM13 28c-1.657 0-3-1.343-3-3s1.343-3 3-3 3 1.343 3 3-1.343 3-3 3zM13 16c-1.657 0-3-1.343-3-3s1.343-3 3-3 3 1.343 3 3-1.343 3-3 3zM19 22c-1.657 0-3-1.343-3-3s1.343-3 3-3 3 1.343 3 3-1.343 3-3 3zM25 28c-1.657 0-3-1.343-3-3s1.343-3 3-3 3 1.343 3 3-1.343 3-3 3zM25 16c-1.657 0-3-1.343-3-3s1.343-3 3-3 3 1.343 3 3-1.343 3-3 3zM25.899 4c-0.467-2.275-2.491-4-4.899-4h-16c-2.75 0-5 2.25-5 5v16c0 2.408 1.725 4.432 4 4.899v-19.899c0-1.1 0.9-2 2-2h19.899z"></path>
</symbol>
</defs>
</svg>
